<svg width="512" height="512" viewBox="0 0 512 512" fill="none" xmlns="http://www.w3.org/2000/svg">
<path fill-rule="evenodd" clip-rule="evenodd" d="M243.215 63.576C242.661 64.4724 239.994 75.4716 237.29 88.0196C234.585 100.568 231.347 112.399 230.094 114.31C226.238 120.196 221.552 118.714 199.229 104.562C187.756 97.2877 177.687 91.3362 176.856 91.3362C176.022 91.3362 174.509 92.3399 173.489 93.5684C171.053 96.5045 170.837 96.2767 207.048 129.005C236.904 155.99 241.3 158.871 245.293 154.062C246.175 152.998 247.309 144.237 247.812 134.591C250.169 89.4215 250.745 66.8765 249.6 64.5179C248.197 61.6216 244.738 61.1116 243.215 63.576ZM260.908 65.0117C260.373 66.6972 260.341 74.4679 260.839 82.2783C261.336 90.0886 262.379 108.963 263.156 124.219C263.998 140.729 265.249 152.776 266.245 153.976C270.244 158.793 274.476 155.944 305.891 127.28C328.121 106.998 337.498 97.5052 337.826 94.9512C338.205 92.0063 337.652 91.3362 334.847 91.3362C332.953 91.3362 329.863 92.4149 327.98 93.733C312.86 104.324 290.057 117.787 287.238 117.787C281.848 117.787 279.331 112.197 273.81 87.974C271.009 75.6788 268.045 64.7942 267.224 63.7832C264.964 61.0029 261.997 61.5789 260.908 65.0117ZM345.76 104.183C344.721 104.544 331 119.051 315.267 136.417C286.589 168.076 283.76 172.328 288.665 176.4C291.178 178.485 374.456 182.444 378.14 180.652C381.036 179.244 381.546 175.787 379.082 174.264C378.185 173.71 367.186 171.043 354.638 168.339C342.09 165.634 330.184 162.347 328.179 161.033C322.578 157.364 324.39 151.927 338.682 129.52C345.633 118.622 351.322 108.619 351.322 107.291C351.322 104.631 348.693 103.161 345.76 104.183ZM161.329 105.479C159.019 107.789 160.84 111.665 173.513 131.412C180.787 142.748 186.738 153.474 186.738 155.249C186.738 160.926 181.967 163.145 158.011 168.607C145.119 171.546 133.654 174.818 132.533 175.879C131.397 176.955 130.921 178.917 131.456 180.313C132.318 182.56 134.336 182.721 151.128 181.885C207.752 179.067 219.681 178.273 222.686 177.12C223.94 176.638 224.945 174.501 224.945 172.316C224.945 169.255 218.547 161.359 196.196 136.838C169.56 107.615 164.102 102.707 161.329 105.479ZM133.438 192.925C129.893 194.909 130.27 198.411 134.203 200.053C136.023 200.812 147.091 203.471 158.801 205.961C170.513 208.451 181.589 211.468 183.415 212.665C189.242 216.483 187.64 221.429 173.27 243.989C162.934 260.217 160.145 265.652 161.255 267.413C163.028 270.221 164.934 270.913 166.981 269.489C167.834 268.896 181.224 254.355 196.738 237.175C224.902 205.986 227.965 201.38 223.108 197.503C220.923 195.76 205.032 194.59 166.165 193.312C150.405 192.795 137.165 192.176 136.744 191.937C136.322 191.698 134.834 192.144 133.438 192.925ZM323.698 193.703C302.687 194.808 290.166 196.063 288.797 197.199C284.12 201.08 286.676 205.306 307.438 228.035C341.792 265.642 345.28 269.145 348.381 269.145C353.858 269.145 351.552 262.9 338.835 243.287C331.973 232.702 325.946 221.992 325.447 219.488C324.653 215.523 325.122 214.579 329.065 212.18C331.554 210.667 343.367 207.275 355.316 204.645C377.411 199.781 381.84 197.792 380.185 193.479C379.139 190.754 379.768 190.752 323.698 193.703ZM206.575 245.863C189.602 261.344 175.166 274.94 174.491 276.076C172.769 278.979 174.399 282.374 177.508 282.359C178.947 282.352 189.33 276.4 200.581 269.134C211.83 261.865 222.473 255.92 224.232 255.92C229.931 255.92 232.204 260.831 237.815 285.279C243.374 309.502 245.95 314.856 250.062 310.744C252.401 308.404 248.113 223.044 245.497 219.894C241.461 215.03 237.415 217.728 206.575 245.863ZM266.377 219.572C264.903 221.348 261.682 276.137 261.682 299.436C261.682 308.021 262.179 310.575 263.985 311.267C265.252 311.753 267.012 311.427 267.897 310.543C268.781 309.658 271.747 298.494 274.488 285.735C277.228 272.973 280.443 261.045 281.632 259.226C285.354 253.529 290.245 255.103 312.459 269.145C323.965 276.419 334.371 282.371 335.582 282.371C338.591 282.371 339.879 278.391 337.858 275.332C336.944 273.951 322.386 260.421 305.507 245.266C274.859 217.751 270.348 214.789 266.377 219.572Z" fill="#1F5384"/>
<path fill-rule="evenodd" clip-rule="evenodd" d="M197.65 353.629C181.448 357.084 170.612 367.213 166.683 382.577C163.075 396.682 165.012 413.628 171.576 425.409C175.851 433.08 183.939 440.365 192.271 444.05C206.999 450.563 227.614 450.759 242.676 444.53L246.71 442.861V436.425C246.71 432.885 246.493 430.085 246.226 430.204C245.96 430.322 243.854 431.342 241.546 432.471C223.66 441.22 201.594 438.769 189.67 426.709C182.278 419.233 178.842 409.979 178.827 397.497C178.815 388.869 179.613 384.551 182.191 379.281C185.678 372.152 191.696 367.449 200.232 365.182C211.021 362.317 233.034 364.837 243.618 370.15C244.936 370.812 246.17 371.352 246.362 371.352C246.554 371.352 246.71 368.338 246.71 364.654V357.955L241.282 356.594C226.171 352.804 207.479 351.533 197.65 353.629ZM373.235 353.943C370.572 354.194 365.603 354.438 362.192 354.484L355.99 354.569L356.213 362.154C356.694 378.506 356.894 439 356.477 442.2L356.037 445.589H363.589H371.142L370.56 442.845C370.24 441.336 370.058 432.328 370.154 422.825L370.33 405.549L389.898 422.825C400.66 432.328 410.865 441.344 412.575 442.862L415.684 445.622L425.842 445.444L436 445.266L432.865 443.016C431.14 441.778 425.037 436.695 419.301 431.719C413.565 426.743 404.072 418.605 398.207 413.635C392.341 408.664 387.518 404.379 387.489 404.113C387.46 403.847 388.235 403.624 389.212 403.618C392.376 403.598 400.516 401.16 405.285 398.803C411.321 395.819 415.391 391.82 417.961 386.345C419.8 382.427 419.999 381.406 419.999 375.871C419.998 368.672 418.562 364.618 414.67 360.824C411.674 357.902 405.169 354.949 399.649 354.004C395.101 353.227 381.176 353.194 373.235 353.943ZM289.789 358.369C289.166 360.121 281.23 378.357 272.153 398.892C252.823 442.619 253.969 440.093 252.074 443.155C251.254 444.48 250.584 445.714 250.584 445.899C250.584 446.083 254.322 446.234 258.89 446.234H267.197L268.322 442.2C269.371 438.438 278.418 417.86 279.82 416.047C280.31 415.413 284.935 415.269 300.463 415.401L320.475 415.571L325.821 426.868C328.762 433.082 331.7 439.833 332.351 441.871L333.535 445.578L342.121 445.583L350.707 445.589L349.131 443.491C348.264 442.337 346.522 439.326 345.261 436.8C341.859 429.99 311.92 362.516 310.634 358.765L309.529 355.537L300.225 355.359L290.921 355.181L289.789 358.369ZM76.0445 356.63C76.3066 357.054 76.7081 373.249 76.9372 392.619C77.3491 427.392 77.373 427.885 78.8454 431.657C80.5342 435.982 84.2705 440.398 88.5549 443.134C99.8291 450.332 125.292 451.08 139.393 444.628C143.915 442.559 149.412 437.271 151.086 433.379C153.394 428.015 153.75 422.383 153.916 388.62L154.076 355.859L146.976 355.86H139.875V390.557C139.875 425.17 139.872 425.261 138.441 427.935C134.917 434.526 127.745 437.482 115.345 437.456C102.79 437.43 95.6364 434.404 92.3506 427.73L90.8143 424.609V390.234V355.86H83.1912C77.4485 355.86 75.6856 356.049 76.0445 356.63ZM395.747 363.964C407.866 367.563 409.065 384.954 397.597 390.804C396.194 391.52 393.116 392.515 390.757 393.015C386.441 393.929 374.161 394.263 371.46 393.539L370.007 393.15V378.413V363.677L373.073 363.435C381.737 362.752 392.511 363.003 395.747 363.964ZM308.313 386.682C312.776 396 316.428 403.771 316.428 403.95C316.428 404.128 309.141 404.275 300.236 404.275C291.273 404.275 284.14 404.023 284.259 403.711C286.797 397.061 299.445 368.986 299.76 369.301C300.001 369.542 303.85 377.363 308.313 386.682Z" fill="#4D4F5E"/>
</svg>
